<svg xmlns="http://www.w3.org/2000/svg" version="1.1" xmlns:xlink="http://www.w3.org/1999/xlink" xmlns:svgjs="http://svgjs.dev/svgjs" width="1440" height="560" preserveAspectRatio="none" viewBox="0 0 1440 560"><g mask="url(&quot;#SvgjsMask1002&quot;)" fill="none"><rect width="1440" height="560" x="0" y="0" fill="rgba(56, 62, 65, 1)"></rect><path d="M0,468.248C97.443,488.845,203.172,499.211,292.439,455.044C385.39,409.054,450.479,319.723,492.138,224.752C533.422,130.637,543.143,25.68,525.167,-75.508C507.565,-174.593,468.165,-273.928,391.886,-339.571C319.587,-401.789,218.655,-412.751,123.633,-421.054C42.552,-428.138,-36.282,-411.799,-112.651,-383.655C-184.799,-357.066,-248.281,-316.398,-304.033,-263.446C-364.709,-205.817,-430.468,-146.187,-448.674,-64.51C-467.398,19.488,-445.384,109.056,-403.869,184.441C-363.982,256.87,-290.143,298.662,-222.491,346.203C-151.851,395.843,-84.471,450.393,0,468.248" fill="#2d3234"></path><path d="M1440 1227.7150000000001C1568.893 1252.6 1713.384 1227.313 1817.34 1147.152 1919.046 1068.726 1960.691 934.69 1983.8339999999998 808.36 2003.65 700.19 1962.588 595.586 1938.018 488.396 1915.591 390.557 1895.397 295.513 1846.219 208.00900000000001 1787.088 102.79599999999999 1735.689-21.63499999999999 1624.713-69.07500000000005 1511.374-117.52499999999998 1378.721-84.88699999999994 1263.504-41.09000000000003 1153.7559999999999 0.6280000000000427 1070.363 84.38299999999998 991.703 171.548 911.583 260.331 828.616 351.554 803.635 468.505 777.802 589.443 785.868 723.913 851.299 828.851 914.284 929.866 1047.411 950.756 1145.964 1017.529 1247.767 1086.504 1319.261 1204.404 1440 1227.7150000000001" fill="#434a4e"></path></g><defs><mask id="SvgjsMask1002"><rect width="1440" height="560" fill="#ffffff"></rect></mask></defs></svg>